<?xml version="1.0" encoding="UTF-8"?>
<svg id="Layer_2" data-name="Layer 2" xmlns="http://www.w3.org/2000/svg" viewBox="0 0 1036.18 696.69">
  <defs>
    <style>
      .cls-1 {
        fill: #f5ce30;
      }

      .cls-2 {
        fill: #fff;
      }
    </style>
  </defs>
  <g id="Layer_1-2" data-name="Layer 1">
    <g>
      <circle class="cls-1" cx="687.83" cy="348.35" r="348.35"/>
      <g>
        <g>
          <path class="cls-2" d="M0,384.27v-100.5h34.68v10.58h.36c9-9,18.61-13.51,28.82-13.51,4.93,0,9.87.66,14.77,1.97,4.9,1.29,9.6,3.29,14.11,6.04,4.5,2.75,8.15,6.64,10.94,11.66,2.82,5.02,4.24,10.87,4.24,17.52v66.25h-34.68v-56.8c0-5.22-1.67-9.78-5.02-13.69-3.32-3.95-7.64-5.92-12.97-5.92s-9.97,2.03-14.23,6.1c-4.23,4.04-6.34,8.53-6.34,13.51v56.8H0Z"/>
          <path class="cls-2" d="M135.81,372.31c-11.17-9.92-16.74-22.66-16.74-38.2s5.81-28.29,17.46-38.26c11.63-10,26.01-15.01,43.11-15.01s31.06,5.02,42.63,15.07c11.55,10.04,17.34,22.78,17.34,38.2s-5.66,28.15-16.98,38.14c-11.28,9.97-25.62,14.95-42.99,14.95s-32.63-4.96-43.82-14.89ZM162.65,317.07c-4.51,4.42-6.76,10.1-6.76,17.04s2.15,12.6,6.46,16.98c4.33,4.35,10.04,6.52,17.1,6.52s12.35-2.21,16.74-6.64c4.38-4.45,6.58-10.07,6.58-16.86s-2.26-12.62-6.76-17.04c-4.51-4.42-10.03-6.64-16.56-6.64s-12.26,2.21-16.8,6.64Z"/>
          <path class="cls-2" d="M258.58,283.77v-37.43h34.68v37.43h21.16v26.43h-21.16v31.93c0,9.3,2.6,13.93,7.83,13.93,1.32,0,2.69-.25,4.13-.78,1.43-.51,2.54-1.03,3.35-1.55l1.14-.78,8.61,27.98c-7.41,4.19-15.9,6.28-25.47,6.28-6.5,0-12.11-1.14-16.8-3.41-4.71-2.3-8.28-5.38-10.7-9.21-2.44-3.86-4.17-7.91-5.2-12.14-1.05-4.26-1.55-8.8-1.55-13.63v-38.62h-14.53v-26.43h14.53Z"/>
          <path class="cls-2" d="M326.97,384.27v-100.5h34.68v10.58h.36c9-9,18.61-13.51,28.82-13.51,4.93,0,9.87.66,14.77,1.97,4.9,1.29,9.6,3.29,14.11,6.04,4.5,2.75,8.15,6.64,10.94,11.66,2.82,5.02,4.24,10.87,4.24,17.52v66.25h-34.68v-56.8c0-5.22-1.67-9.78-5.02-13.69-3.32-3.95-7.64-5.92-12.97-5.92s-9.97,2.03-14.23,6.1c-4.23,4.04-6.34,8.53-6.34,13.51v56.8h-34.68Z"/>
          <path class="cls-2" d="M462.78,372.31c-11.17-9.92-16.74-22.66-16.74-38.2s5.81-28.29,17.46-38.26c11.63-10,26.01-15.01,43.11-15.01s31.06,5.02,42.63,15.07c11.55,10.04,17.34,22.78,17.34,38.2s-5.66,28.15-16.98,38.14c-11.28,9.97-25.62,14.95-42.99,14.95s-32.63-4.96-43.82-14.89ZM489.62,317.07c-4.51,4.42-6.76,10.1-6.76,17.04s2.15,12.6,6.46,16.98c4.33,4.35,10.04,6.52,17.1,6.52s12.35-2.21,16.74-6.64c4.38-4.45,6.58-10.07,6.58-16.86s-2.26-12.62-6.76-17.04c-4.51-4.42-10.03-6.64-16.56-6.64s-12.26,2.21-16.8,6.64Z"/>
          <path class="cls-2" d="M579.69,384.27v-100.5h34.68v14.47h.36c.27-.51.69-1.15,1.26-1.91.6-.79,1.87-2.17,3.83-4.13,1.99-1.94,4.08-3.71,6.28-5.26,2.23-1.58,5.1-3,8.61-4.24,3.54-1.23,7.14-1.85,10.82-1.85s7.49.52,11.12,1.55c3.66,1.05,6.35,2.08,8.07,3.11l2.75,1.61-14.53,29.36c-4.3-3.66-10.31-5.5-18-5.5-4.19,0-7.8.93-10.82,2.75-2.99,1.84-5.11,4.07-6.34,6.7-1.24,2.6-2.12,4.81-2.63,6.64-.52,1.84-.78,3.27-.78,4.3v52.91h-34.68Z"/>
          <path class="cls-2" d="M674.12,384.27v-100.5h34.68v10.58h.36c9-9,18.61-13.51,28.82-13.51,7.29,0,14.14,1.49,20.57,4.48,6.41,2.99,11.26,7.64,14.53,13.93,10.16-12.27,21.25-18.41,33.3-18.41,10.67,0,19.86,3.02,27.56,9.03,7.73,5.98,11.6,15.37,11.6,28.16v66.25h-34.68v-56.8c0-5.38-1.48-9.87-4.42-13.45-2.96-3.59-7.35-5.38-13.21-5.38-5.11,0-9,1.54-11.66,4.6-2.68,3.08-4.16,6.76-4.42,11.06v59.97h-34.68v-56.8c0-5.38-1.48-9.87-4.42-13.45-2.91-3.59-7.32-5.38-13.21-5.38-5.35,0-9.36,1.67-12.02,5.02-2.68,3.32-4.01,7.26-4.01,11.84v58.77h-34.68Z"/>
          <path class="cls-2" d="M858.66,384.27v-168.48h34.68v168.48h-34.68Z"/>
          <path class="cls-2" d="M926.44,342.36c6.25,0,11.57,2.2,15.96,6.58,4.38,4.35,6.58,9.67,6.58,15.96s-2.2,11.4-6.58,15.78c-4.39,4.33-9.72,6.52-15.96,6.52s-11.4-2.18-15.78-6.52c-4.35-4.38-6.52-9.64-6.52-15.78s2.17-11.61,6.52-15.96c4.38-4.38,9.64-6.58,15.78-6.58Z"/>
        </g>
        <g>
          <path class="cls-2" d="M507.41,434.76c10.49,0,15.77,6.58,15.77,19.75v24.14c0,1.3-.41,2.33-1.23,3.15-.75.82-1.75,1.23-3.02,1.23s-2.33-.41-3.15-1.23c-.82-.82-1.23-1.85-1.23-3.15v-24c0-7.95-3.29-11.93-9.87-11.93-2.4,0-4.53.55-6.45,1.65-1.92,1.03-3.43,2.43-4.53,4.25-1.03,1.85-1.51,3.84-1.51,6.03v24c0,1.3-.41,2.33-1.23,3.15-.82.82-1.85,1.23-3.02,1.23-1.3,0-2.33-.41-3.15-1.23-.75-.82-1.1-1.85-1.1-3.15v-24.14c0-3.57-.79-6.38-2.33-8.5-1.47-2.19-3.98-3.29-7.54-3.29s-6.51,1.17-8.78,3.43c-2.3,2.3-3.43,5.07-3.43,8.37v24.14c0,1.3-.41,2.33-1.23,3.15-.82.82-1.89,1.23-3.15,1.23s-2.33-.41-3.15-1.23c-.75-.82-1.1-1.85-1.1-3.15v-38.67c0-1.17.41-2.19,1.23-3.02.82-.89,1.82-1.37,3.02-1.37,1.27,0,2.33.48,3.15,1.37.82.82,1.23,1.85,1.23,3.02v3.15c1.54-2.37,3.6-4.32,6.17-5.9,2.64-1.65,5.52-2.47,8.64-2.47,7.47,0,12.34,3.36,14.54,10.01,1.37-2.54,3.57-4.83,6.58-6.86,3.09-2.09,6.38-3.15,9.87-3.15Z"/>
          <path class="cls-2" d="M636.5,457.53c0,1.1-.48,2.02-1.37,2.74-.82.75-1.78,1.1-2.88,1.1h-31.95c.45,4.39,2.13,7.95,5.07,10.7,2.91,2.67,6.48,3.98,10.7,3.98,2.91,0,5.28-.41,7.13-1.23,1.82-.89,3.43-1.99,4.8-3.29.89-.55,1.78-.82,2.61-.82.99,0,1.82.38,2.47,1.1.72.65,1.1,1.47,1.1,2.47,0,1.3-.62,2.43-1.78,3.43-1.75,1.75-4.08,3.26-6.99,4.53-2.85,1.17-5.76,1.78-8.78,1.78-4.94,0-9.29-.99-13.03-3.02-3.67-2.09-6.51-4.97-8.5-8.64-2.02-3.74-3.02-7.95-3.02-12.62,0-5.01.99-9.46,3.02-13.3,2.09-3.84,4.83-6.75,8.23-8.78,3.46-2.09,7.17-3.15,11.11-3.15s7.44,1.03,10.83,3.02c3.36,2.02,6.07,4.77,8.09,8.23,2.09,3.5,3.15,7.41,3.15,11.79ZM614.42,442.44c-3.39,0-6.31.96-8.78,2.88-2.47,1.92-4.11,4.87-4.94,8.78h26.74v-.69c-.27-3.19-1.75-5.79-4.39-7.82-2.57-2.09-5.45-3.15-8.64-3.15Z"/>
          <path class="cls-2" d="M747.36,416.11c1.27,0,2.33.41,3.15,1.23.82.75,1.23,1.75,1.23,3.02v58.28c0,1.3-.41,2.33-1.23,3.15-.82.82-1.89,1.23-3.15,1.23-1.2,0-2.19-.41-3.02-1.23-.82-.82-1.23-1.85-1.23-3.15v-2.47c-1.47,2.19-3.57,4.08-6.31,5.62-2.74,1.44-5.73,2.19-8.91,2.19-4.05,0-7.75-1.03-11.11-3.15-3.29-2.19-5.9-5.14-7.82-8.91-1.92-3.74-2.88-7.99-2.88-12.75s.89-8.85,2.74-12.62c1.92-3.84,4.53-6.79,7.82-8.91,3.36-2.09,7.03-3.15,10.97-3.15,3.19,0,6.17.69,8.91,2.06,2.74,1.3,4.94,2.98,6.58,5.07v-21.26c0-1.27.41-2.26,1.23-3.02.82-.82,1.82-1.23,3.02-1.23ZM728.99,476.04c2.81,0,5.35-.72,7.54-2.19,2.19-1.44,3.87-3.46,5.07-6.03,1.27-2.54,1.92-5.42,1.92-8.64s-.65-5.93-1.92-8.5c-1.2-2.54-2.88-4.56-5.07-6.03-2.19-1.44-4.73-2.19-7.54-2.19s-5.35.75-7.54,2.19c-2.19,1.47-3.94,3.5-5.21,6.03-1.3,2.57-1.92,5.42-1.92,8.5s.62,6.1,1.92,8.64c1.27,2.57,3.02,4.59,5.21,6.03,2.19,1.47,4.7,2.19,7.54,2.19Z"/>
          <path class="cls-2" d="M828.04,478.64c0,1.3-.41,2.33-1.23,3.15-.82.82-1.85,1.23-3.02,1.23-1.3,0-2.33-.41-3.15-1.23-.75-.82-1.1-1.85-1.1-3.15v-39.08c0-1.27.34-2.33,1.1-3.15.82-.82,1.85-1.23,3.15-1.23,1.17,0,2.19.41,3.02,1.23.82.82,1.23,1.89,1.23,3.15v39.08ZM823.65,429.14c-1.75,0-2.98-.31-3.7-.96-.75-.62-1.1-1.65-1.1-3.02v-1.37c0-1.44.41-2.47,1.23-3.02.82-.62,2.06-.96,3.7-.96s2.81.34,3.57.96c.82.65,1.23,1.65,1.23,3.02v1.37c0,1.47-.41,2.54-1.23,3.15-.75.55-1.99.82-3.7.82Z"/>
          <path class="cls-2" d="M937.85,435.03c1.27,0,2.33.41,3.15,1.23.82.75,1.23,1.78,1.23,3.15v39.22c0,1.3-.41,2.33-1.23,3.15s-1.89,1.23-3.15,1.23c-1.2,0-2.19-.41-3.02-1.23s-1.23-1.85-1.23-3.15v-2.33c-1.58,2.13-3.7,3.94-6.45,5.49-2.67,1.44-5.59,2.19-8.78,2.19-4.05,0-7.75-1.03-11.11-3.15-3.39-2.19-6.03-5.14-7.95-8.91-1.85-3.74-2.74-7.99-2.74-12.75s.89-8.85,2.74-12.62c1.92-3.84,4.53-6.79,7.82-8.91,3.36-2.09,7.03-3.15,10.97-3.15,3.19,0,6.17.69,8.91,2.06,2.81,1.3,5.01,2.98,6.58,5.07v-2.19c0-1.27.41-2.33,1.23-3.15s1.82-1.23,3.02-1.23ZM919.47,476.04c2.81,0,5.35-.72,7.54-2.19,2.19-1.44,3.87-3.46,5.07-6.03,1.27-2.54,1.92-5.42,1.92-8.64s-.65-5.9-1.92-8.37c-1.2-2.54-2.88-4.56-5.07-6.03-2.19-1.54-4.73-2.33-7.54-2.33s-5.35.75-7.54,2.19c-2.19,1.47-3.94,3.5-5.21,6.03-1.3,2.47-1.92,5.31-1.92,8.5s.62,6.1,1.92,8.64c1.27,2.57,3.02,4.59,5.21,6.03,2.19,1.47,4.7,2.19,7.54,2.19Z"/>
        </g>
      </g>
    </g>
  </g>
</svg>